<svg>




<symbol id="google"  viewBox="0 0 24 24" fill="none" xmlns="http://www.w3.org/2000/svg">
<path fill-rule="evenodd" clip-rule="evenodd" d="M23.04 12.2613C23.04 11.4459 22.9668 10.6618 22.8309 9.90906H12V14.3575H18.1891C17.9225 15.795 17.1123 17.0129 15.8943 17.8284V20.7138H19.6109C21.7855 18.7118 23.04 15.7636 23.04 12.2613Z" fill="#4285F4"/>
<path fill-rule="evenodd" clip-rule="evenodd" d="M12 23.4998C15.105 23.4998 17.7081 22.47 19.6109 20.7137L15.8943 17.8282C14.8645 18.5182 13.5472 18.9259 12 18.9259C9.00474 18.9259 6.46951 16.903 5.56519 14.1848H1.72314V17.1644C3.61542 20.9228 7.50451 23.4998 12 23.4998Z" fill="#34A853"/>
<path fill-rule="evenodd" clip-rule="evenodd" d="M5.56523 14.1851C5.33523 13.4951 5.20455 12.7581 5.20455 12.0001C5.20455 11.2422 5.33523 10.5051 5.56523 9.81512V6.83557H1.72318C0.944318 8.38807 0.5 10.1444 0.5 12.0001C0.5 13.8558 0.944318 15.6122 1.72318 17.1647L5.56523 14.1851Z" fill="#FBBC05"/>
<path fill-rule="evenodd" clip-rule="evenodd" d="M12 5.07386C13.6884 5.07386 15.2043 5.65409 16.3961 6.79364L19.6945 3.49523C17.7029 1.63955 15.0997 0.5 12 0.5C7.50451 0.5 3.61542 3.07705 1.72314 6.83545L5.56519 9.815C6.46951 7.09682 9.00474 5.07386 12 5.07386Z" fill="#EA4335"/>
</symbol>


<symbol id="facebook" viewBox="0 0 24 24" fill="none" xmlns="http://www.w3.org/2000/svg">
<path d="M23.5 12.0699C23.5 5.7186 18.3513 0.56988 12 0.56988C5.64872 0.56988 0.5 5.7186 0.5 12.0699C0.5 17.8099 4.70538 22.5674 10.2031 23.4302V15.3941H7.2832V12.0699H10.2031V9.53629C10.2031 6.6541 11.92 5.06207 14.5468 5.06207C15.805 5.06207 17.1211 5.28668 17.1211 5.28668V8.11675H15.671C14.2424 8.11675 13.7969 9.00322 13.7969 9.91266V12.0699H16.9863L16.4765 15.3941H13.7969V23.4302C19.2946 22.5674 23.5 17.8099 23.5 12.0699Z" fill="white"/>
</symbol>


<symbol id="logout" viewBox="0 0 17 17" fill="none" xmlns="http://www.w3.org/2000/svg">
<path d="M11.657 12.478L15.6211 8.51383M15.6211 8.51383L11.657 4.54969M15.6211 8.51383H6.10719M8.48567 12.478C8.48567 12.7123 8.48567 12.8295 8.47696 12.931C8.38643 13.9859 7.60948 14.854 6.57102 15.0604C6.47112 15.0803 6.35456 15.0932 6.12174 15.1191L5.31194 15.2091C4.09537 15.3443 3.48705 15.4119 3.00379 15.2572C2.35944 15.051 1.83338 14.5802 1.55729 13.9625C1.35022 13.4993 1.35022 12.8873 1.35022 11.6632V5.36448C1.35022 4.1404 1.35022 3.52837 1.55729 3.06514C1.83338 2.44749 2.35944 1.97665 3.00379 1.77045C3.48706 1.61581 4.09535 1.68339 5.31193 1.81857L6.12174 1.90855C6.35464 1.93443 6.4711 1.94737 6.57102 1.96723C7.60948 2.17371 8.38643 3.04176 8.47696 4.09668C8.48567 4.19818 8.48567 4.31535 8.48567 4.54969"  stroke-width="1.58193" stroke-linecap="round" stroke-linejoin="round"/>
</symbol>


<symbol  id="login" viewBox="0 0 24 24" fill="none" xmlns="http://www.w3.org/2000/svg">
<path d="M8.90002 7.55999C9.21002 3.95999 11.06 2.48999 15.11 2.48999H15.24C19.71 2.48999 21.5 4.27999 21.5 8.74999V15.27C21.5 19.74 19.71 21.53 15.24 21.53H15.11C11.09 21.53 9.24002 20.08 8.91002 16.54"  stroke-width="1.5" stroke-linecap="round" stroke-linejoin="round"/>
<path d="M2 12H14.88"  stroke-width="1.5" stroke-linecap="round" stroke-linejoin="round"/>
<path d="M12.65 8.6499L16 11.9999L12.65 15.3499"  stroke-width="1.5" stroke-linecap="round" stroke-linejoin="round"/>
</symbol>

<symbol id="profile" viewBox="0 0 24 24" fill="none" xmlns="http://www.w3.org/2000/svg">
<path opacity="0.4" d="M12.1207 12.78C12.0507 12.77 11.9607 12.77 11.8807 12.78C10.1207 12.72 8.7207 11.28 8.7207 9.50998C8.7207 7.69998 10.1807 6.22998 12.0007 6.22998C13.8107 6.22998 15.2807 7.69998 15.2807 9.50998C15.2707 11.28 13.8807 12.72 12.1207 12.78Z"  stroke-width="1.5" stroke-linecap="round" stroke-linejoin="round"/>
<path opacity="0.34" d="M18.7398 19.3801C16.9598 21.0101 14.5998 22.0001 11.9998 22.0001C9.39977 22.0001 7.03977 21.0101 5.25977 19.3801C5.35977 18.4401 5.95977 17.5201 7.02977 16.8001C9.76977 14.9801 14.2498 14.9801 16.9698 16.8001C18.0398 17.5201 18.6398 18.4401 18.7398 19.3801Z"  stroke-width="1.5" stroke-linecap="round" stroke-linejoin="round"/>
<path d="M12 22C17.5228 22 22 17.5228 22 12C22 6.47715 17.5228 2 12 2C6.47715 2 2 6.47715 2 12C2 17.5228 6.47715 22 12 22Z"  stroke-width="1.5" stroke-linecap="round" stroke-linejoin="round"/>
</symbol>




<symbol id="Camera"  viewBox="0 0 17 17" fill="none" xmlns="http://www.w3.org/2000/svg">
<path d="M13.5155 4.58067H12.6573L12.4428 3.91023C12.3037 3.51684 12.0457 3.17644 11.7046 2.93619C11.3634 2.69594 10.956 2.56774 10.5388 2.56935H7.10611C6.68477 2.57014 6.27432 2.70323 5.93268 2.94983C5.59105 3.19643 5.33548 3.54409 5.20206 3.94375L4.98752 4.61419H4.12936C3.59592 4.61419 3.08434 4.8261 2.70714 5.20329C2.32995 5.58049 2.11804 6.09207 2.11804 6.62551V11.989C2.11804 12.5224 2.32995 13.034 2.70714 13.4112C3.08434 13.7884 3.59592 14.0003 4.12936 14.0003H13.5155C14.0489 14.0003 14.5605 13.7884 14.9377 13.4112C15.3149 13.034 15.5268 12.5224 15.5268 11.989V6.62551C15.5313 6.35857 15.4825 6.09342 15.3834 5.84551C15.2844 5.5976 15.1369 5.3719 14.9497 5.18157C14.7625 4.99124 14.5393 4.84008 14.293 4.73691C14.0468 4.63374 13.7825 4.58063 13.5155 4.58067ZM14.1859 11.9555C14.1859 12.1333 14.1153 12.3038 13.9896 12.4296C13.8638 12.5553 13.6933 12.6259 13.5155 12.6259H4.12936C3.95155 12.6259 3.78102 12.5553 3.65529 12.4296C3.52956 12.3038 3.45892 12.1333 3.45892 11.9555V6.59198C3.45892 6.41417 3.52956 6.24364 3.65529 6.11791C3.78102 5.99218 3.95155 5.92155 4.12936 5.92155H5.47024C5.61644 5.92918 5.76112 5.88874 5.88218 5.80642C6.00324 5.7241 6.09403 5.60441 6.14068 5.46565L6.50271 4.36613C6.54769 4.23296 6.63338 4.1173 6.74767 4.03549C6.86196 3.95369 6.99908 3.90987 7.13963 3.91023H10.5723C10.7128 3.90987 10.8499 3.95369 10.9642 4.03549C11.0785 4.1173 11.1642 4.23296 11.2092 4.36613L11.5712 5.46565C11.6143 5.59353 11.6949 5.70546 11.8025 5.78679C11.9102 5.86813 12.0399 5.9151 12.1746 5.92155H13.5155C13.6933 5.92155 13.8638 5.99218 13.9896 6.11791C14.1153 6.24364 14.1859 6.41417 14.1859 6.59198V11.9555ZM8.82243 5.92155C8.29203 5.92155 7.77354 6.07883 7.33253 6.3735C6.89152 6.66818 6.54779 7.08701 6.34481 7.57704C6.14184 8.06706 6.08873 8.60628 6.1922 9.12648C6.29568 9.64669 6.55109 10.1245 6.92614 10.4996C7.30119 10.8746 7.77904 11.1301 8.29925 11.2335C8.81946 11.337 9.35867 11.2839 9.8487 11.0809C10.3387 10.8779 10.7576 10.5342 11.0522 10.0932C11.3469 9.65219 11.5042 9.1337 11.5042 8.6033C11.5042 7.89205 11.2216 7.20994 10.7187 6.70701C10.2158 6.20409 9.53368 5.92155 8.82243 5.92155ZM8.82243 9.94418C8.55723 9.94418 8.29799 9.86554 8.07748 9.7182C7.85697 9.57086 7.68511 9.36144 7.58362 9.11643C7.48213 8.87142 7.45558 8.60181 7.50732 8.34171C7.55906 8.0816 7.68676 7.84268 7.87429 7.65516C8.06181 7.46763 8.30073 7.33993 8.56084 7.28819C8.82094 7.23645 9.09055 7.263 9.33556 7.36449C9.58058 7.46598 9.78999 7.63784 9.93733 7.85835C10.0847 8.07886 10.1633 8.3381 10.1633 8.6033C10.1633 8.95892 10.022 9.29998 9.77058 9.55144C9.51911 9.80291 9.17805 9.94418 8.82243 9.94418Z" fill="#182341"/>
</symbol>




<symbol id="plus" viewBox="0 0 24 24"  xmlns="http://www.w3.org/2000/svg">
<path fill-rule="evenodd" clip-rule="evenodd" d="M12 4C12.5523 4 13 4.44772 13 5V11H19C19.5523 11 20 11.4477 20 12C20 12.5523 19.5523 13 19 13H13V19C13 19.5523 12.5523 20 12 20C11.4477 20 11 19.5523 11 19V13H5C4.44772 13 4 12.5523 4 12C4 11.4477 4.44772 11 5 11H11V5C11 4.44772 11.4477 4 12 4Z" />
</symbol>


<symbol id="mrModalPrev" viewBox="0 0 26 25" fill="none" xmlns="http://www.w3.org/2000/svg">
<path d="M19.8491 12.2231H5.22339" stroke="#DA3A1F" stroke-width="1.88045" stroke-linecap="round" stroke-linejoin="round"/>
<path d="M12.5362 19.3533L5.22339 12.2233L12.5362 5.09326" stroke="#DA3A1F" stroke-width="1.88045" stroke-linecap="round" stroke-linejoin="round"/>
</symbol>
<symbol id="uploadCloud" width="26" height="25" viewBox="0 0 26 25" fill="none" xmlns="http://www.w3.org/2000/svg">
<path d="M4.79592 17.0463C3.5755 16.2294 2.77197 14.8382 2.77197 13.2593C2.77197 10.8876 4.58493 8.93945 6.90057 8.72498C7.37425 5.84365 9.87628 3.64551 12.8917 3.64551C15.9072 3.64551 18.4092 5.84365 18.8829 8.72498C21.1985 8.93945 23.0115 10.8876 23.0115 13.2593C23.0115 14.8382 22.208 16.2294 20.9875 17.0463M8.84382 16.8012L12.8917 12.7533M12.8917 12.7533L16.9396 16.8012M12.8917 12.7533V21.8611" stroke="#A3B4C0" stroke-width="2.02395" stroke-linecap="round" stroke-linejoin="round"/>
</symbol>



<symbol
   xmlns:dc="http://purl.org/dc/elements/1.1/"
   xmlns:cc="http://creativecommons.org/ns#"
   xmlns:rdf="http://www.w3.org/1999/02/22-rdf-syntax-ns#"
   xmlns:svg="http://www.w3.org/2000/svg"
   xmlns="http://www.w3.org/2000/svg"
   xmlns:sodipodi="http://sodipodi.sourceforge.net/DTD/sodipodi-0.dtd"
   xmlns:inkscape="http://www.inkscape.org/namespaces/inkscape"
   version="1.1"
   id="close"
   height="25"
   width="25"
   sodipodi:docname="close_icon_grey.svg"
   inkscape:export-filename="D:\Загрузки\close_icon_black2.svg.png"
   inkscape:export-xdpi="72.959999"
   inkscape:export-ydpi="72.959999"
   inkscape:version="0.92.3 (2405546, 2018-03-11)">
  <sodipodi:namedview
     pagecolor="#ffffff"
     bordercolor="#666666"
     borderopacity="1"
     objecttolerance="10"
     gridtolerance="10"
     guidetolerance="10"
     inkscape:pageopacity="0"
     inkscape:pageshadow="2"
     inkscape:window-width="1366"
     inkscape:window-height="706"
     id="namedview3731"
     showgrid="false"
     inkscape:zoom="15.245222"
     inkscape:cx="5.6822049"
     inkscape:cy="12.495936"
     inkscape:window-x="-8"
     inkscape:window-y="-8"
     inkscape:window-maximized="1"
     inkscape:current-layer="imagebot_2" />
  <defs
     id="defs13" />
  <metadata
     id="imagebot_6">image/svg+xml<rdf:RDF>
  <cc:Work
     rdf:about="">
    <dc:format>image/svg+xml</dc:format>
    <dc:type
       rdf:resource="http://purl.org/dc/dcmitype/StillImage" />
    <dc:title></dc:title>
  </cc:Work>
</rdf:RDF>
</metadata>
  <g
     transform="translate(3.9661017,3.5677966)"
     id="imagebot_2"
     label="Layer 1">
    <path
       inkscape:connector-curvature="0"
       stroke-miterlimit="4"
       d="M -2.5783352e-4,-0.00146808 17.435473,18.212367"
       id="imagebot_5"
       style="opacity:1;fill:#5f6368;stroke:#5f6368;stroke-width:3.23161912;stroke-linecap:round;stroke-miterlimit:4;fill-opacity:1;stroke-opacity:1" />
    <path
       inkscape:connector-curvature="0"
       stroke-miterlimit="4"
       d="M -2.5783352e-4,18.212367 17.435473,-0.00146808"
       id="imagebot_4"
       style="opacity:1;fill:#5f6368;stroke:#5f6368;stroke-width:3.23161912;stroke-linecap:round;stroke-miterlimit:4;fill-opacity:1;stroke-opacity:1" />
    <title
       id="title9">Layer 1</title>
  </g>
</symbol>




</svg>